<mxfile host="app.diagrams.net" agent="Mozilla/5.0 (Windows NT 10.0; Win64; x64) AppleWebKit/537.36 (KHTML, like Gecko) Chrome/134.0.0.0 Safari/537.36" version="26.1.3">
  <diagram name="Page-1" id="74e2e168-ea6b-b213-b513-2b3c1d86103e">
    <mxGraphModel dx="350" dy="186" grid="1" gridSize="10" guides="1" tooltips="1" connect="1" arrows="1" fold="1" page="1" pageScale="1" pageWidth="1100" pageHeight="850" background="none" math="0" shadow="0">
      <root>
        <mxCell id="0" />
        <mxCell id="1" parent="0" />
        <mxCell id="urim3Smq5EnJUSF81W1--1" value="&lt;font style=&quot;font-size: 18px;&quot;&gt;取消发布的检修计划&lt;/font&gt;" style="swimlane;html=1;childLayout=stackLayout;startSize=20;rounded=0;shadow=0;labelBackgroundColor=none;strokeWidth=1;fontFamily=Verdana;fontSize=8;align=center;" vertex="1" parent="1">
          <mxGeometry x="70" y="20" width="960" height="980" as="geometry" />
        </mxCell>
        <mxCell id="urim3Smq5EnJUSF81W1--2" value="接收请求" style="swimlane;html=1;startSize=20;" vertex="1" parent="urim3Smq5EnJUSF81W1--1">
          <mxGeometry y="20" width="160" height="960" as="geometry">
            <mxRectangle y="20" width="40" height="730" as="alternateBounds" />
          </mxGeometry>
        </mxCell>
        <mxCell id="urim3Smq5EnJUSF81W1--3" style="edgeStyle=orthogonalEdgeStyle;rounded=0;orthogonalLoop=1;jettySize=auto;html=1;exitX=0.5;exitY=1;exitDx=0;exitDy=0;entryX=0.5;entryY=0;entryDx=0;entryDy=0;" edge="1" parent="urim3Smq5EnJUSF81W1--2" source="urim3Smq5EnJUSF81W1--4" target="urim3Smq5EnJUSF81W1--5">
          <mxGeometry relative="1" as="geometry" />
        </mxCell>
        <mxCell id="urim3Smq5EnJUSF81W1--4" value="&lt;font style=&quot;font-size: 12px;&quot;&gt;开始&lt;/font&gt;" style="rounded=1;whiteSpace=wrap;html=1;shadow=0;labelBackgroundColor=none;strokeWidth=1;fontFamily=Verdana;fontSize=8;align=center;" vertex="1" parent="urim3Smq5EnJUSF81W1--2">
          <mxGeometry x="20" y="60" width="100" height="60" as="geometry" />
        </mxCell>
        <mxCell id="urim3Smq5EnJUSF81W1--5" value="&lt;font style=&quot;font-size: 12px;&quot;&gt;参数验证&lt;/font&gt;" style="rhombus;whiteSpace=wrap;html=1;rounded=0;shadow=0;labelBackgroundColor=none;strokeWidth=1;fontFamily=Verdana;fontSize=8;align=center;" vertex="1" parent="urim3Smq5EnJUSF81W1--2">
          <mxGeometry x="20" y="160" width="100" height="75" as="geometry" />
        </mxCell>
        <mxCell id="urim3Smq5EnJUSF81W1--6" style="edgeStyle=orthogonalEdgeStyle;rounded=0;orthogonalLoop=1;jettySize=auto;html=1;exitX=0.5;exitY=1;exitDx=0;exitDy=0;entryX=0.5;entryY=0;entryDx=0;entryDy=0;" edge="1" parent="urim3Smq5EnJUSF81W1--2" source="urim3Smq5EnJUSF81W1--5" target="urim3Smq5EnJUSF81W1--8">
          <mxGeometry relative="1" as="geometry">
            <mxPoint x="70" y="980" as="targetPoint" />
          </mxGeometry>
        </mxCell>
        <mxCell id="urim3Smq5EnJUSF81W1--7" value="否" style="edgeLabel;html=1;align=center;verticalAlign=middle;resizable=0;points=[];" vertex="1" connectable="0" parent="urim3Smq5EnJUSF81W1--6">
          <mxGeometry x="-0.24" y="-1" relative="1" as="geometry">
            <mxPoint as="offset" />
          </mxGeometry>
        </mxCell>
        <mxCell id="urim3Smq5EnJUSF81W1--8" value="&lt;span style=&quot;font-size: 12px;&quot;&gt;失败返回&lt;/span&gt;" style="whiteSpace=wrap;html=1;fontSize=8;fontFamily=Verdana;rounded=0;shadow=0;labelBackgroundColor=none;strokeWidth=1;" vertex="1" parent="urim3Smq5EnJUSF81W1--2">
          <mxGeometry x="20" y="880" width="100" height="60" as="geometry" />
        </mxCell>
        <mxCell id="urim3Smq5EnJUSF81W1--9" value="新增检修计划变更记录" style="swimlane;html=1;startSize=20;" vertex="1" parent="urim3Smq5EnJUSF81W1--1">
          <mxGeometry x="160" y="20" width="160" height="960" as="geometry" />
        </mxCell>
        <mxCell id="urim3Smq5EnJUSF81W1--68" style="edgeStyle=orthogonalEdgeStyle;rounded=0;orthogonalLoop=1;jettySize=auto;html=1;exitX=0.5;exitY=1;exitDx=0;exitDy=0;" edge="1" parent="urim3Smq5EnJUSF81W1--9" source="urim3Smq5EnJUSF81W1--11" target="urim3Smq5EnJUSF81W1--16">
          <mxGeometry relative="1" as="geometry" />
        </mxCell>
        <mxCell id="urim3Smq5EnJUSF81W1--11" value="&lt;span style=&quot;font-size: 12px;&quot;&gt;新增&lt;/span&gt;&lt;div&gt;&lt;span style=&quot;font-size: 12px;&quot;&gt;检修计划变更记录&lt;/span&gt;&lt;/div&gt;" style="whiteSpace=wrap;html=1;fontSize=8;fontFamily=Verdana;rounded=0;shadow=0;labelBackgroundColor=none;strokeWidth=1;" vertex="1" parent="urim3Smq5EnJUSF81W1--9">
          <mxGeometry x="30" y="167.5" width="100" height="60" as="geometry" />
        </mxCell>
        <mxCell id="urim3Smq5EnJUSF81W1--16" value="&lt;span style=&quot;font-size: 12px;&quot;&gt;是否为&lt;/span&gt;&lt;div&gt;&lt;span style=&quot;font-size: 12px;&quot;&gt;月检修计划&lt;/span&gt;&lt;/div&gt;" style="rhombus;whiteSpace=wrap;html=1;rounded=0;shadow=0;labelBackgroundColor=none;strokeWidth=1;fontFamily=Verdana;fontSize=8;align=center;" vertex="1" parent="urim3Smq5EnJUSF81W1--9">
          <mxGeometry x="30" y="270" width="100" height="75" as="geometry" />
        </mxCell>
        <mxCell id="urim3Smq5EnJUSF81W1--17" value="&lt;span style=&quot;font-size: 12px;&quot;&gt;是否为&lt;/span&gt;&lt;div&gt;&lt;span style=&quot;font-size: 12px;&quot;&gt;周、临时、日期停电、抢修计划&lt;/span&gt;&lt;/div&gt;" style="rhombus;whiteSpace=wrap;html=1;rounded=0;shadow=0;labelBackgroundColor=none;strokeWidth=1;fontFamily=Verdana;fontSize=8;align=center;" vertex="1" parent="urim3Smq5EnJUSF81W1--9">
          <mxGeometry x="30" y="385" width="100" height="75" as="geometry" />
        </mxCell>
        <mxCell id="urim3Smq5EnJUSF81W1--18" style="edgeStyle=orthogonalEdgeStyle;rounded=0;orthogonalLoop=1;jettySize=auto;html=1;exitX=0.5;exitY=1;exitDx=0;exitDy=0;" edge="1" parent="urim3Smq5EnJUSF81W1--9" source="urim3Smq5EnJUSF81W1--16" target="urim3Smq5EnJUSF81W1--17">
          <mxGeometry relative="1" as="geometry" />
        </mxCell>
        <mxCell id="urim3Smq5EnJUSF81W1--19" value="&lt;font style=&quot;font-size: 10px;&quot;&gt;否&lt;/font&gt;" style="edgeLabel;html=1;align=center;verticalAlign=middle;resizable=0;points=[];" vertex="1" connectable="0" parent="urim3Smq5EnJUSF81W1--18">
          <mxGeometry x="-0.4155" relative="1" as="geometry">
            <mxPoint as="offset" />
          </mxGeometry>
        </mxCell>
        <mxCell id="urim3Smq5EnJUSF81W1--22" value="取消月检修计划" style="swimlane;html=1;startSize=20;" vertex="1" parent="urim3Smq5EnJUSF81W1--1">
          <mxGeometry x="320" y="20" width="160" height="960" as="geometry" />
        </mxCell>
        <mxCell id="urim3Smq5EnJUSF81W1--23" style="edgeStyle=orthogonalEdgeStyle;rounded=0;orthogonalLoop=1;jettySize=auto;html=1;exitX=0.5;exitY=1;exitDx=0;exitDy=0;entryX=0.5;entryY=0;entryDx=0;entryDy=0;" edge="1" parent="urim3Smq5EnJUSF81W1--22" target="urim3Smq5EnJUSF81W1--78">
          <mxGeometry relative="1" as="geometry">
            <mxPoint x="80" y="330" as="sourcePoint" />
            <mxPoint x="80" y="370" as="targetPoint" />
          </mxGeometry>
        </mxCell>
        <mxCell id="urim3Smq5EnJUSF81W1--81" value="是" style="edgeLabel;html=1;align=center;verticalAlign=middle;resizable=0;points=[];" vertex="1" connectable="0" parent="urim3Smq5EnJUSF81W1--23">
          <mxGeometry x="0.0183" relative="1" as="geometry">
            <mxPoint as="offset" />
          </mxGeometry>
        </mxCell>
        <mxCell id="urim3Smq5EnJUSF81W1--73" style="edgeStyle=orthogonalEdgeStyle;rounded=0;orthogonalLoop=1;jettySize=auto;html=1;exitX=0.5;exitY=1;exitDx=0;exitDy=0;entryX=0.5;entryY=0;entryDx=0;entryDy=0;" edge="1" parent="urim3Smq5EnJUSF81W1--22" source="urim3Smq5EnJUSF81W1--69" target="urim3Smq5EnJUSF81W1--72">
          <mxGeometry relative="1" as="geometry" />
        </mxCell>
        <mxCell id="urim3Smq5EnJUSF81W1--82" value="查询到" style="edgeLabel;html=1;align=center;verticalAlign=middle;resizable=0;points=[];" vertex="1" connectable="0" parent="urim3Smq5EnJUSF81W1--73">
          <mxGeometry x="-0.4331" y="1" relative="1" as="geometry">
            <mxPoint as="offset" />
          </mxGeometry>
        </mxCell>
        <mxCell id="urim3Smq5EnJUSF81W1--74" style="edgeStyle=orthogonalEdgeStyle;rounded=0;orthogonalLoop=1;jettySize=auto;html=1;exitX=0;exitY=0.5;exitDx=0;exitDy=0;" edge="1" parent="urim3Smq5EnJUSF81W1--22" source="urim3Smq5EnJUSF81W1--69">
          <mxGeometry relative="1" as="geometry">
            <mxPoint x="-250" y="520" as="targetPoint" />
            <Array as="points">
              <mxPoint x="10" y="198" />
              <mxPoint x="10" y="520" />
              <mxPoint x="-250" y="520" />
            </Array>
          </mxGeometry>
        </mxCell>
        <mxCell id="urim3Smq5EnJUSF81W1--75" value="&lt;font style=&quot;font-size: 10px;&quot;&gt;未查询到&lt;/font&gt;" style="edgeLabel;html=1;align=center;verticalAlign=middle;resizable=0;points=[];" vertex="1" connectable="0" parent="urim3Smq5EnJUSF81W1--74">
          <mxGeometry x="-0.9614" y="4" relative="1" as="geometry">
            <mxPoint x="2" y="18" as="offset" />
          </mxGeometry>
        </mxCell>
        <mxCell id="urim3Smq5EnJUSF81W1--69" value="&lt;span style=&quot;font-size: 12px;&quot;&gt;查询&lt;/span&gt;&lt;div&gt;&lt;span style=&quot;font-size: 12px;&quot;&gt;对应的周计划&lt;/span&gt;&lt;/div&gt;" style="rhombus;whiteSpace=wrap;html=1;rounded=0;shadow=0;labelBackgroundColor=none;strokeWidth=1;fontFamily=Verdana;fontSize=8;align=center;" vertex="1" parent="urim3Smq5EnJUSF81W1--22">
          <mxGeometry x="30" y="160" width="100" height="75" as="geometry" />
        </mxCell>
        <mxCell id="urim3Smq5EnJUSF81W1--76" style="edgeStyle=orthogonalEdgeStyle;rounded=0;orthogonalLoop=1;jettySize=auto;html=1;exitX=0;exitY=0.5;exitDx=0;exitDy=0;" edge="1" parent="urim3Smq5EnJUSF81W1--22" source="urim3Smq5EnJUSF81W1--72">
          <mxGeometry relative="1" as="geometry">
            <mxPoint x="10" y="308" as="targetPoint" />
          </mxGeometry>
        </mxCell>
        <mxCell id="urim3Smq5EnJUSF81W1--77" value="&lt;font style=&quot;font-size: 10px;&quot;&gt;否&lt;/font&gt;" style="edgeLabel;html=1;align=center;verticalAlign=middle;resizable=0;points=[];" vertex="1" connectable="0" parent="urim3Smq5EnJUSF81W1--76">
          <mxGeometry x="-0.3171" relative="1" as="geometry">
            <mxPoint as="offset" />
          </mxGeometry>
        </mxCell>
        <mxCell id="urim3Smq5EnJUSF81W1--72" value="&lt;span style=&quot;font-size: 12px;&quot;&gt;计划状态为&lt;/span&gt;&lt;div&gt;&lt;span style=&quot;font-size: 12px;&quot;&gt;编制、调度退回、&lt;/span&gt;&lt;/div&gt;&lt;div&gt;&lt;span style=&quot;font-size: 12px;&quot;&gt;已取消、不停电作业受理&lt;/span&gt;&lt;/div&gt;" style="rhombus;whiteSpace=wrap;html=1;rounded=0;shadow=0;labelBackgroundColor=none;strokeWidth=1;fontFamily=Verdana;fontSize=8;align=center;" vertex="1" parent="urim3Smq5EnJUSF81W1--22">
          <mxGeometry x="30" y="270" width="100" height="75" as="geometry" />
        </mxCell>
        <mxCell id="urim3Smq5EnJUSF81W1--80" style="edgeStyle=orthogonalEdgeStyle;rounded=0;orthogonalLoop=1;jettySize=auto;html=1;exitX=0.5;exitY=1;exitDx=0;exitDy=0;" edge="1" parent="urim3Smq5EnJUSF81W1--22" source="urim3Smq5EnJUSF81W1--78" target="urim3Smq5EnJUSF81W1--79">
          <mxGeometry relative="1" as="geometry" />
        </mxCell>
        <mxCell id="urim3Smq5EnJUSF81W1--78" value="&lt;span style=&quot;font-size: 12px;&quot;&gt;更新&lt;/span&gt;&lt;div&gt;&lt;span style=&quot;font-size: 12px;&quot;&gt;对应周计划的&lt;/span&gt;&lt;/div&gt;&lt;div&gt;&lt;span style=&quot;font-size: 12px;&quot;&gt;状态为已取消&lt;/span&gt;&lt;/div&gt;" style="whiteSpace=wrap;html=1;fontSize=8;fontFamily=Verdana;rounded=0;shadow=0;labelBackgroundColor=none;strokeWidth=1;" vertex="1" parent="urim3Smq5EnJUSF81W1--22">
          <mxGeometry x="30" y="380" width="100" height="60" as="geometry" />
        </mxCell>
        <mxCell id="urim3Smq5EnJUSF81W1--83" style="edgeStyle=orthogonalEdgeStyle;rounded=0;orthogonalLoop=1;jettySize=auto;html=1;exitX=0;exitY=0.5;exitDx=0;exitDy=0;" edge="1" parent="urim3Smq5EnJUSF81W1--22" source="urim3Smq5EnJUSF81W1--79">
          <mxGeometry relative="1" as="geometry">
            <mxPoint x="10" y="517.3793103448276" as="targetPoint" />
          </mxGeometry>
        </mxCell>
        <mxCell id="urim3Smq5EnJUSF81W1--84" value="&lt;font style=&quot;font-size: 10px;&quot;&gt;未查询到&lt;/font&gt;" style="edgeLabel;html=1;align=center;verticalAlign=middle;resizable=0;points=[];" vertex="1" connectable="0" parent="urim3Smq5EnJUSF81W1--83">
          <mxGeometry x="-0.3014" y="-1" relative="1" as="geometry">
            <mxPoint x="-3" y="14" as="offset" />
          </mxGeometry>
        </mxCell>
        <mxCell id="urim3Smq5EnJUSF81W1--79" value="&lt;span style=&quot;font-size: 12px;&quot;&gt;查询&lt;/span&gt;&lt;div&gt;&lt;span style=&quot;font-size: 12px;&quot;&gt;对应周计划的&lt;/span&gt;&lt;/div&gt;&lt;div&gt;&lt;span style=&quot;font-size: 12px;&quot;&gt;关联发任务&lt;/span&gt;&lt;/div&gt;" style="rhombus;whiteSpace=wrap;html=1;rounded=0;shadow=0;labelBackgroundColor=none;strokeWidth=1;fontFamily=Verdana;fontSize=8;align=center;" vertex="1" parent="urim3Smq5EnJUSF81W1--22">
          <mxGeometry x="30" y="480" width="100" height="75" as="geometry" />
        </mxCell>
        <mxCell id="urim3Smq5EnJUSF81W1--39" value="取消周检修计划" style="swimlane;html=1;startSize=20;" vertex="1" parent="urim3Smq5EnJUSF81W1--1">
          <mxGeometry x="480" y="20" width="160" height="960" as="geometry" />
        </mxCell>
        <mxCell id="urim3Smq5EnJUSF81W1--40" style="edgeStyle=orthogonalEdgeStyle;rounded=0;orthogonalLoop=1;jettySize=auto;html=1;exitX=0.5;exitY=1;exitDx=0;exitDy=0;" edge="1" parent="urim3Smq5EnJUSF81W1--39" source="urim3Smq5EnJUSF81W1--41" target="urim3Smq5EnJUSF81W1--42">
          <mxGeometry relative="1" as="geometry" />
        </mxCell>
        <mxCell id="urim3Smq5EnJUSF81W1--41" value="&lt;div&gt;&lt;span style=&quot;font-size: 12px;&quot;&gt;查询&lt;/span&gt;&lt;span style=&quot;font-size: 12px;&quot;&gt;&lt;/span&gt;&lt;/div&gt;&lt;span style=&quot;font-size: 12px;&quot;&gt;待合并计划的站线信息并去重&lt;br&gt;&lt;/span&gt;" style="whiteSpace=wrap;html=1;fontSize=8;fontFamily=Verdana;rounded=0;shadow=0;labelBackgroundColor=none;strokeWidth=1;" vertex="1" parent="urim3Smq5EnJUSF81W1--39">
          <mxGeometry x="30" y="270" width="100" height="60" as="geometry" />
        </mxCell>
        <mxCell id="urim3Smq5EnJUSF81W1--42" value="&lt;span style=&quot;font-size: 12px;&quot;&gt;保存新计划的站线&lt;/span&gt;" style="whiteSpace=wrap;html=1;fontSize=8;fontFamily=Verdana;rounded=0;shadow=0;labelBackgroundColor=none;strokeWidth=1;" vertex="1" parent="urim3Smq5EnJUSF81W1--39">
          <mxGeometry x="30" y="370" width="100" height="60" as="geometry" />
        </mxCell>
        <mxCell id="urim3Smq5EnJUSF81W1--43" style="edgeStyle=orthogonalEdgeStyle;rounded=0;orthogonalLoop=1;jettySize=auto;html=1;exitX=0.5;exitY=1;exitDx=0;exitDy=0;" edge="1" parent="urim3Smq5EnJUSF81W1--39" source="urim3Smq5EnJUSF81W1--44" target="urim3Smq5EnJUSF81W1--41">
          <mxGeometry relative="1" as="geometry" />
        </mxCell>
        <mxCell id="urim3Smq5EnJUSF81W1--44" value="&lt;span style=&quot;font-size: 12px;&quot;&gt;去重工作任务&lt;/span&gt;&lt;div&gt;&lt;span style=&quot;font-size: 12px;&quot;&gt;保存检修计划于工作任务关联&lt;/span&gt;&lt;/div&gt;" style="whiteSpace=wrap;html=1;fontSize=8;fontFamily=Verdana;rounded=0;shadow=0;labelBackgroundColor=none;strokeWidth=1;" vertex="1" parent="urim3Smq5EnJUSF81W1--39">
          <mxGeometry x="30" y="170" width="100" height="60" as="geometry" />
        </mxCell>
        <mxCell id="urim3Smq5EnJUSF81W1--45" value="停电范围更新" style="swimlane;html=1;startSize=20;" vertex="1" parent="urim3Smq5EnJUSF81W1--1">
          <mxGeometry x="640" y="20" width="160" height="960" as="geometry" />
        </mxCell>
        <mxCell id="urim3Smq5EnJUSF81W1--46" style="edgeStyle=orthogonalEdgeStyle;rounded=0;orthogonalLoop=1;jettySize=auto;html=1;exitX=0.5;exitY=1;exitDx=0;exitDy=0;entryX=0.5;entryY=0;entryDx=0;entryDy=0;" edge="1" parent="urim3Smq5EnJUSF81W1--45" source="urim3Smq5EnJUSF81W1--47" target="urim3Smq5EnJUSF81W1--49">
          <mxGeometry relative="1" as="geometry" />
        </mxCell>
        <mxCell id="urim3Smq5EnJUSF81W1--47" value="&lt;div&gt;&lt;span style=&quot;font-size: 12px;&quot;&gt;查询&lt;/span&gt;&lt;span style=&quot;font-size: 12px;&quot;&gt;&lt;/span&gt;&lt;/div&gt;&lt;span style=&quot;font-size: 12px;&quot;&gt;待合并计划的停电边界设备信息&lt;/span&gt;" style="whiteSpace=wrap;html=1;fontSize=8;fontFamily=Verdana;rounded=0;shadow=0;labelBackgroundColor=none;strokeWidth=1;" vertex="1" parent="urim3Smq5EnJUSF81W1--45">
          <mxGeometry x="30" y="170" width="100" height="60" as="geometry" />
        </mxCell>
        <mxCell id="urim3Smq5EnJUSF81W1--48" style="edgeStyle=orthogonalEdgeStyle;rounded=0;orthogonalLoop=1;jettySize=auto;html=1;exitX=0.5;exitY=1;exitDx=0;exitDy=0;entryX=0.5;entryY=0;entryDx=0;entryDy=0;" edge="1" parent="urim3Smq5EnJUSF81W1--45" source="urim3Smq5EnJUSF81W1--49" target="urim3Smq5EnJUSF81W1--51">
          <mxGeometry relative="1" as="geometry" />
        </mxCell>
        <mxCell id="urim3Smq5EnJUSF81W1--49" value="&lt;span style=&quot;font-size: 12px;&quot;&gt;保存新计划的停电边界设备&lt;/span&gt;" style="whiteSpace=wrap;html=1;fontSize=8;fontFamily=Verdana;rounded=0;shadow=0;labelBackgroundColor=none;strokeWidth=1;" vertex="1" parent="urim3Smq5EnJUSF81W1--45">
          <mxGeometry x="30" y="270" width="100" height="60" as="geometry" />
        </mxCell>
        <mxCell id="urim3Smq5EnJUSF81W1--50" style="edgeStyle=orthogonalEdgeStyle;rounded=0;orthogonalLoop=1;jettySize=auto;html=1;exitX=0.5;exitY=1;exitDx=0;exitDy=0;entryX=0.5;entryY=0;entryDx=0;entryDy=0;" edge="1" parent="urim3Smq5EnJUSF81W1--45" source="urim3Smq5EnJUSF81W1--51" target="urim3Smq5EnJUSF81W1--52">
          <mxGeometry relative="1" as="geometry" />
        </mxCell>
        <mxCell id="urim3Smq5EnJUSF81W1--51" value="&lt;div&gt;&lt;span style=&quot;font-size: 12px;&quot;&gt;查询&lt;/span&gt;&lt;span style=&quot;font-size: 12px;&quot;&gt;&lt;/span&gt;&lt;/div&gt;&lt;span style=&quot;font-size: 12px;&quot;&gt;待合并计划的检修计划停电范围信息&lt;/span&gt;" style="whiteSpace=wrap;html=1;fontSize=8;fontFamily=Verdana;rounded=0;shadow=0;labelBackgroundColor=none;strokeWidth=1;" vertex="1" parent="urim3Smq5EnJUSF81W1--45">
          <mxGeometry x="30" y="370" width="100" height="60" as="geometry" />
        </mxCell>
        <mxCell id="urim3Smq5EnJUSF81W1--52" value="&lt;span style=&quot;font-size: 12px;&quot;&gt;保存新计划的&lt;/span&gt;&lt;span style=&quot;font-size: 12px;&quot;&gt;检修计划停电范围&lt;/span&gt;" style="whiteSpace=wrap;html=1;fontSize=8;fontFamily=Verdana;rounded=0;shadow=0;labelBackgroundColor=none;strokeWidth=1;" vertex="1" parent="urim3Smq5EnJUSF81W1--45">
          <mxGeometry x="30" y="470" width="100" height="60" as="geometry" />
        </mxCell>
        <mxCell id="urim3Smq5EnJUSF81W1--53" value="" style="edgeStyle=orthogonalEdgeStyle;rounded=0;orthogonalLoop=1;jettySize=auto;html=1;" edge="1" parent="urim3Smq5EnJUSF81W1--1" source="urim3Smq5EnJUSF81W1--5">
          <mxGeometry relative="1" as="geometry">
            <mxPoint x="190" y="217.5" as="targetPoint" />
          </mxGeometry>
        </mxCell>
        <mxCell id="urim3Smq5EnJUSF81W1--54" value="是" style="edgeLabel;html=1;align=center;verticalAlign=middle;resizable=0;points=[];" vertex="1" connectable="0" parent="urim3Smq5EnJUSF81W1--53">
          <mxGeometry x="-0.5771" relative="1" as="geometry">
            <mxPoint as="offset" />
          </mxGeometry>
        </mxCell>
        <mxCell id="urim3Smq5EnJUSF81W1--55" value="数据完善并保存" style="swimlane;html=1;startSize=20;" vertex="1" parent="urim3Smq5EnJUSF81W1--1">
          <mxGeometry x="800" y="20" width="160" height="960" as="geometry" />
        </mxCell>
        <mxCell id="urim3Smq5EnJUSF81W1--56" style="edgeStyle=orthogonalEdgeStyle;rounded=0;orthogonalLoop=1;jettySize=auto;html=1;exitX=0.5;exitY=1;exitDx=0;exitDy=0;entryX=0.5;entryY=0;entryDx=0;entryDy=0;" edge="1" parent="urim3Smq5EnJUSF81W1--55" source="urim3Smq5EnJUSF81W1--57" target="urim3Smq5EnJUSF81W1--59">
          <mxGeometry relative="1" as="geometry" />
        </mxCell>
        <mxCell id="urim3Smq5EnJUSF81W1--57" value="&lt;div&gt;&lt;span style=&quot;font-size: 12px;&quot;&gt;检修发送内容配置&lt;/span&gt;&lt;/div&gt;&lt;div&gt;&lt;span style=&quot;font-size: 12px;&quot;&gt;数据组装并入库&lt;/span&gt;&lt;/div&gt;" style="whiteSpace=wrap;html=1;fontSize=8;fontFamily=Verdana;rounded=0;shadow=0;labelBackgroundColor=none;strokeWidth=1;" vertex="1" parent="urim3Smq5EnJUSF81W1--55">
          <mxGeometry x="30" y="170" width="100" height="60" as="geometry" />
        </mxCell>
        <mxCell id="urim3Smq5EnJUSF81W1--58" style="edgeStyle=orthogonalEdgeStyle;rounded=0;orthogonalLoop=1;jettySize=auto;html=1;exitX=0.5;exitY=1;exitDx=0;exitDy=0;entryX=0.5;entryY=0;entryDx=0;entryDy=0;" edge="1" parent="urim3Smq5EnJUSF81W1--55" source="urim3Smq5EnJUSF81W1--59" target="urim3Smq5EnJUSF81W1--60">
          <mxGeometry relative="1" as="geometry" />
        </mxCell>
        <mxCell id="urim3Smq5EnJUSF81W1--59" value="&lt;span style=&quot;font-size: 12px;&quot;&gt;检修扩展属性&lt;/span&gt;&lt;div&gt;&lt;span style=&quot;font-size: 12px;&quot;&gt;数据组装并入库&lt;/span&gt;&lt;/div&gt;" style="whiteSpace=wrap;html=1;fontSize=8;fontFamily=Verdana;rounded=0;shadow=0;labelBackgroundColor=none;strokeWidth=1;" vertex="1" parent="urim3Smq5EnJUSF81W1--55">
          <mxGeometry x="30" y="270" width="100" height="60" as="geometry" />
        </mxCell>
        <mxCell id="urim3Smq5EnJUSF81W1--60" value="&lt;span style=&quot;font-size: 12px;&quot;&gt;构建检修计划变更数据并入库&lt;/span&gt;" style="whiteSpace=wrap;html=1;fontSize=8;fontFamily=Verdana;rounded=0;shadow=0;labelBackgroundColor=none;strokeWidth=1;" vertex="1" parent="urim3Smq5EnJUSF81W1--55">
          <mxGeometry x="30" y="360" width="100" height="60" as="geometry" />
        </mxCell>
        <mxCell id="urim3Smq5EnJUSF81W1--61" style="edgeStyle=orthogonalEdgeStyle;rounded=0;orthogonalLoop=1;jettySize=auto;html=1;exitX=0.5;exitY=1;exitDx=0;exitDy=0;entryX=0.5;entryY=0;entryDx=0;entryDy=0;" edge="1" parent="urim3Smq5EnJUSF81W1--55" source="urim3Smq5EnJUSF81W1--60" target="urim3Smq5EnJUSF81W1--62">
          <mxGeometry relative="1" as="geometry">
            <mxPoint x="80" y="800" as="targetPoint" />
            <mxPoint x="80" y="690" as="sourcePoint" />
          </mxGeometry>
        </mxCell>
        <mxCell id="urim3Smq5EnJUSF81W1--62" value="&lt;span style=&quot;font-size: 12px;&quot;&gt;成功返回&lt;/span&gt;" style="whiteSpace=wrap;html=1;fontSize=8;fontFamily=Verdana;rounded=0;shadow=0;labelBackgroundColor=none;strokeWidth=1;" vertex="1" parent="urim3Smq5EnJUSF81W1--55">
          <mxGeometry x="30" y="880" width="100" height="60" as="geometry" />
        </mxCell>
        <mxCell id="urim3Smq5EnJUSF81W1--63" style="edgeStyle=orthogonalEdgeStyle;rounded=0;orthogonalLoop=1;jettySize=auto;html=1;entryX=0.5;entryY=0;entryDx=0;entryDy=0;exitX=0.5;exitY=1;exitDx=0;exitDy=0;" edge="1" parent="urim3Smq5EnJUSF81W1--1" source="urim3Smq5EnJUSF81W1--42" target="urim3Smq5EnJUSF81W1--47">
          <mxGeometry relative="1" as="geometry">
            <Array as="points">
              <mxPoint x="560" y="490" />
              <mxPoint x="630" y="490" />
              <mxPoint x="630" y="150" />
              <mxPoint x="720" y="150" />
            </Array>
            <mxPoint x="560" y="820" as="sourcePoint" />
            <mxPoint x="720" y="180" as="targetPoint" />
          </mxGeometry>
        </mxCell>
        <mxCell id="urim3Smq5EnJUSF81W1--66" style="edgeStyle=orthogonalEdgeStyle;rounded=0;orthogonalLoop=1;jettySize=auto;html=1;entryX=0.5;entryY=0;entryDx=0;entryDy=0;exitX=0.5;exitY=1;exitDx=0;exitDy=0;" edge="1" parent="urim3Smq5EnJUSF81W1--1" target="urim3Smq5EnJUSF81W1--44">
          <mxGeometry relative="1" as="geometry">
            <mxPoint x="400" y="870" as="sourcePoint" />
            <Array as="points">
              <mxPoint x="400" y="910" />
              <mxPoint x="470" y="910" />
              <mxPoint x="470" y="150" />
              <mxPoint x="560" y="150" />
            </Array>
          </mxGeometry>
        </mxCell>
        <mxCell id="urim3Smq5EnJUSF81W1--67" style="edgeStyle=orthogonalEdgeStyle;rounded=0;orthogonalLoop=1;jettySize=auto;html=1;exitX=0.5;exitY=1;exitDx=0;exitDy=0;entryX=0.5;entryY=0;entryDx=0;entryDy=0;" edge="1" parent="urim3Smq5EnJUSF81W1--1" source="urim3Smq5EnJUSF81W1--52" target="urim3Smq5EnJUSF81W1--57">
          <mxGeometry relative="1" as="geometry">
            <Array as="points">
              <mxPoint x="720" y="570" />
              <mxPoint x="790" y="570" />
              <mxPoint x="790" y="150" />
              <mxPoint x="880" y="150" />
            </Array>
          </mxGeometry>
        </mxCell>
        <mxCell id="urim3Smq5EnJUSF81W1--70" style="edgeStyle=orthogonalEdgeStyle;rounded=0;orthogonalLoop=1;jettySize=auto;html=1;exitX=1;exitY=0.5;exitDx=0;exitDy=0;entryX=0.5;entryY=0;entryDx=0;entryDy=0;" edge="1" parent="urim3Smq5EnJUSF81W1--1" source="urim3Smq5EnJUSF81W1--16" target="urim3Smq5EnJUSF81W1--69">
          <mxGeometry relative="1" as="geometry">
            <Array as="points">
              <mxPoint x="310" y="328" />
              <mxPoint x="310" y="140" />
              <mxPoint x="400" y="140" />
            </Array>
          </mxGeometry>
        </mxCell>
        <mxCell id="urim3Smq5EnJUSF81W1--71" value="&lt;font style=&quot;font-size: 10px;&quot;&gt;是&lt;/font&gt;" style="edgeLabel;html=1;align=center;verticalAlign=middle;resizable=0;points=[];" vertex="1" connectable="0" parent="urim3Smq5EnJUSF81W1--70">
          <mxGeometry x="-0.9473" relative="1" as="geometry">
            <mxPoint as="offset" />
          </mxGeometry>
        </mxCell>
      </root>
    </mxGraphModel>
  </diagram>
</mxfile>
